{
 "cells": [
  {
   "cell_type": "markdown",
   "id": "c13350e5",
   "metadata": {},
   "source": [
    "## From EXR to YUV\n",
    "* .exr images from ftp://svtopencontent.svt.se\n",
    "* 1500 images at 50 fps = 30sec\n",
    "* inside a .yuv raw video with 4k resolution and yuv420p sampling"
   ]
  },
  {
   "cell_type": "code",
   "execution_count": null,
   "id": "b26e6664",
   "metadata": {},
   "outputs": [],
   "source": [
    "import subprocess\n",
    "c_seq = \"ffmpeg -y -start_number 180000 -framerate 50 -i test_vids/smithy/smithy_%04d.exr \\\n",
    "        -c:v rawvideo -pix_fmt yuv420p -s 3840x2160 -r 50 test_vids/smithy.yuv\"\n",
    "subprocess.call(c_seq, shell=True)"
   ]
  },
  {
   "cell_type": "markdown",
   "id": "baa6a520",
   "metadata": {},
   "source": [
    "## From YUV to YUV multires\n",
    "the .yuv reference uncompressed file is downsized to 5 more resolutions"
   ]
  },
  {
   "cell_type": "code",
   "execution_count": null,
   "id": "5e3a4089",
   "metadata": {},
   "outputs": [],
   "source": [
    "import numpy as np\n",
    "import subprocess\n",
    "source = \"smithy\"\n",
    "res_widths = [3840, 2560, 1920, 1280, 1024, 640]\n",
    "res_heights = [2160, 1440, 1080, 720, 576, 360]\n",
    "for i in range(1, res_widths.size):\n",
    "    path = \"test_vids/downsampled/\" + source + \"_\" + str(res_widths[i-1]) + \".yuv\"\n",
    "    out = \"test_vids/downsampled/\" + source + \"_\" + str(res_widths[i]) + \".yuv\"\n",
    "    command = f\"ffmpeg -f rawvideo -video_size {res_widths[i-1]}x{res_heights[i-1]} -r 50 -pixel_format yuv420p \\\n",
    "    -i {path} -f rawvideo -c:v rawvideo -filter:v scale={res_widths[i]}x{res_heights[i]} -pix_fmt yuv420p {out}\"\n",
    "    subprocess.call(command, shell=True)"
   ]
  },
  {
   "cell_type": "markdown",
   "id": "4c767856",
   "metadata": {},
   "source": [
    "## From YUV to H264 AVC"
   ]
  },
  {
   "cell_type": "code",
   "execution_count": 2,
   "id": "1bd6facd",
   "metadata": {},
   "outputs": [
    {
     "name": "stderr",
     "output_type": "stream",
     "text": [
      "ffmpeg version N-106635-g83e1a1de88 Copyright (c) 2000-2022 the FFmpeg developers\n",
      "  built with gcc 9 (Ubuntu 9.4.0-1ubuntu1~20.04.1)\n",
      "  configuration: --prefix=/home/ubuntu/ffmpeg_build --pkg-config-flags=--static --extra-cflags=-I/home/ubuntu/ffmpeg_build/include --extra-ldflags=-L/home/ubuntu/ffmpeg_build/lib --extra-libs='-lpthread -lm' --ld=g++ --bindir=/home/ubuntu/bin --enable-gpl --enable-gnutls --enable-libaom --enable-libass --enable-libfdk-aac --enable-libfreetype --enable-libmp3lame --enable-libopus --enable-libsvtav1 --enable-libdav1d --enable-libvorbis --enable-libvpx --enable-libx264 --enable-libx265 --enable-libvmaf --enable-version3 --enable-nonfree\n",
      "  libavutil      57. 24.101 / 57. 24.101\n",
      "  libavcodec     59. 26.100 / 59. 26.100\n",
      "  libavformat    59. 22.100 / 59. 22.100\n",
      "  libavdevice    59.  6.100 / 59.  6.100\n",
      "  libavfilter     8. 33.100 /  8. 33.100\n",
      "  libswscale      6.  6.100 /  6.  6.100\n",
      "  libswresample   4.  6.100 /  4.  6.100\n",
      "  libpostproc    56.  5.100 / 56.  5.100\n",
      "[rawvideo @ 0x5583dfa244c0] Estimating duration from bitrate, this may be inaccurate\n",
      "Input #0, rawvideo, from 'test_vids/refs/smithy.yuv':\n",
      "  Duration: 00:00:30.00, start: 0.000000, bitrate: 4976640 kb/s\n",
      "  Stream #0:0: Video: rawvideo (I420 / 0x30323449), yuv420p, 3840x2160, 4976640 kb/s, 50 tbr, 50 tbn\n",
      "Stream mapping:\n",
      "  Stream #0:0 -> #0:0 (rawvideo (native) -> h264 (libx264))\n",
      "Press [q] to stop, [?] for help\n",
      "[libx264 @ 0x5583dfa31180] using cpu capabilities: MMX2 SSE2Fast SSSE3 SSE4.2 AVX FMA3 BMI2 AVX2\n",
      "[libx264 @ 0x5583dfa31180] profile High, level 5.2\n",
      "[libx264 @ 0x5583dfa31180] 264 - core 155 r2917 0a84d98 - H.264/MPEG-4 AVC codec - Copyleft 2003-2018 - http://www.videolan.org/x264.html - options: cabac=1 ref=3 deblock=1:0:0 analyse=0x3:0x113 me=hex subme=7 psy=1 psy_rd=1.00:0.00 mixed_ref=1 me_range=16 chroma_me=1 trellis=1 8x8dct=1 cqm=0 deadzone=21,11 fast_pskip=1 chroma_qp_offset=-2 threads=12 lookahead_threads=2 sliced_threads=0 nr=0 decimate=1 interlaced=0 bluray_compat=0 constrained_intra=0 bframes=3 b_pyramid=2 b_adapt=1 b_bias=0 direct=1 weightb=1 open_gop=0 weightp=2 keyint=250 keyint_min=25 scenecut=40 intra_refresh=0 rc_lookahead=40 rc=crf mbtree=1 crf=10.0 qcomp=0.60 qpmin=0 qpmax=69 qpstep=4 ip_ratio=1.40 aq=1:1.00\n",
      "Output #0, mp4, to 'test_vids/encoded/smithyAVC_cf10.mp4':\n",
      "  Metadata:\n",
      "    encoder         : Lavf59.22.100\n",
      "  Stream #0:0: Video: h264 (avc1 / 0x31637661), yuv420p(progressive), 3840x2160, q=2-31, 50 fps, 12800 tbn\n",
      "    Metadata:\n",
      "      encoder         : Lavc59.26.100 libx264\n",
      "    Side data:\n",
      "      cpb: bitrate max/min/avg: 0/0/0 buffer size: 0 vbv_delay: N/A\n",
      "frame= 1500 fps=8.3 q=-1.0 Lsize=  606976kB time=00:00:29.94 bitrate=166076.5kbits/s speed=0.165x     \n",
      "video:606946kB audio:0kB subtitle:0kB other streams:0kB global headers:0kB muxing overhead: 0.004929%\n",
      "[libx264 @ 0x5583dfa31180] frame I:6     Avg QP: 8.14  size:4056957\n",
      "[libx264 @ 0x5583dfa31180] frame P:398   Avg QP:10.66  size:1160788\n",
      "[libx264 @ 0x5583dfa31180] frame B:1096  Avg QP:17.57  size:123336\n",
      "[libx264 @ 0x5583dfa31180] consecutive B-frames:  1.9%  0.9%  3.0% 94.1%\n",
      "[libx264 @ 0x5583dfa31180] mb I  I16..4:  3.2% 47.6% 49.3%\n",
      "[libx264 @ 0x5583dfa31180] mb P  I16..4:  0.0%  0.5%  0.6%  P16..4: 49.9% 19.0% 27.6%  0.0%  0.0%    skip: 2.4%\n",
      "[libx264 @ 0x5583dfa31180] mb B  I16..4:  0.0%  0.0%  0.0%  B16..8: 34.3%  5.7%  3.7%  direct: 7.4%  skip:48.9%  L0:29.8% L1:46.4% BI:23.8%\n",
      "[libx264 @ 0x5583dfa31180] 8x8 transform intra:45.6% inter:46.7%\n",
      "[libx264 @ 0x5583dfa31180] coded y,uvDC,uvAC intra: 100.0% 99.9% 99.4% inter: 34.2% 23.8% 19.5%\n",
      "[libx264 @ 0x5583dfa31180] i16 v,h,dc,p: 40% 15% 26% 19%\n",
      "[libx264 @ 0x5583dfa31180] i8 v,h,dc,ddl,ddr,vr,hd,vl,hu: 17% 19% 10%  6% 10%  9% 11%  8% 11%\n",
      "[libx264 @ 0x5583dfa31180] i4 v,h,dc,ddl,ddr,vr,hd,vl,hu: 14% 15%  8%  7% 13% 11% 13%  9% 11%\n",
      "[libx264 @ 0x5583dfa31180] i8c dc,h,v,p: 59% 14% 15% 12%\n",
      "[libx264 @ 0x5583dfa31180] Weighted P-Frames: Y:0.0% UV:0.0%\n",
      "[libx264 @ 0x5583dfa31180] ref P L0: 75.2%  8.0% 10.9%  5.9%\n",
      "[libx264 @ 0x5583dfa31180] ref B L0: 87.2% 10.6%  2.2%\n",
      "[libx264 @ 0x5583dfa31180] ref B L1: 93.7%  6.3%\n",
      "[libx264 @ 0x5583dfa31180] kb/s:165736.44\n",
      "ffmpeg version N-106635-g83e1a1de88 Copyright (c) 2000-2022 the FFmpeg developers\n",
      "  built with gcc 9 (Ubuntu 9.4.0-1ubuntu1~20.04.1)\n",
      "  configuration: --prefix=/home/ubuntu/ffmpeg_build --pkg-config-flags=--static --extra-cflags=-I/home/ubuntu/ffmpeg_build/include --extra-ldflags=-L/home/ubuntu/ffmpeg_build/lib --extra-libs='-lpthread -lm' --ld=g++ --bindir=/home/ubuntu/bin --enable-gpl --enable-gnutls --enable-libaom --enable-libass --enable-libfdk-aac --enable-libfreetype --enable-libmp3lame --enable-libopus --enable-libsvtav1 --enable-libdav1d --enable-libvorbis --enable-libvpx --enable-libx264 --enable-libx265 --enable-libvmaf --enable-version3 --enable-nonfree\n",
      "  libavutil      57. 24.101 / 57. 24.101\n",
      "  libavcodec     59. 26.100 / 59. 26.100\n",
      "  libavformat    59. 22.100 / 59. 22.100\n",
      "  libavdevice    59.  6.100 / 59.  6.100\n",
      "  libavfilter     8. 33.100 /  8. 33.100\n",
      "  libswscale      6.  6.100 /  6.  6.100\n",
      "  libswresample   4.  6.100 /  4.  6.100\n",
      "  libpostproc    56.  5.100 / 56.  5.100\n",
      "[rawvideo @ 0x563be24a54c0] Estimating duration from bitrate, this may be inaccurate\n",
      "Input #0, rawvideo, from 'test_vids/refs/smithy.yuv':\n",
      "  Duration: 00:00:30.00, start: 0.000000, bitrate: 4976640 kb/s\n",
      "  Stream #0:0: Video: rawvideo (I420 / 0x30323449), yuv420p, 3840x2160, 4976640 kb/s, 50 tbr, 50 tbn\n",
      "Stream mapping:\n",
      "  Stream #0:0 -> #0:0 (rawvideo (native) -> h264 (libx264))\n",
      "Press [q] to stop, [?] for help\n",
      "[libx264 @ 0x563be24b2180] using cpu capabilities: MMX2 SSE2Fast SSSE3 SSE4.2 AVX FMA3 BMI2 AVX2\n",
      "[libx264 @ 0x563be24b2180] profile High, level 5.2\n",
      "[libx264 @ 0x563be24b2180] 264 - core 155 r2917 0a84d98 - H.264/MPEG-4 AVC codec - Copyleft 2003-2018 - http://www.videolan.org/x264.html - options: cabac=1 ref=3 deblock=1:0:0 analyse=0x3:0x113 me=hex subme=7 psy=1 psy_rd=1.00:0.00 mixed_ref=1 me_range=16 chroma_me=1 trellis=1 8x8dct=1 cqm=0 deadzone=21,11 fast_pskip=1 chroma_qp_offset=-2 threads=12 lookahead_threads=2 sliced_threads=0 nr=0 decimate=1 interlaced=0 bluray_compat=0 constrained_intra=0 bframes=3 b_pyramid=2 b_adapt=1 b_bias=0 direct=1 weightb=1 open_gop=0 weightp=2 keyint=250 keyint_min=25 scenecut=40 intra_refresh=0 rc_lookahead=40 rc=crf mbtree=1 crf=17.0 qcomp=0.60 qpmin=0 qpmax=69 qpstep=4 ip_ratio=1.40 aq=1:1.00\n",
      "Output #0, mp4, to 'test_vids/encoded/smithyAVC_cf17.mp4':\n",
      "  Metadata:\n",
      "    encoder         : Lavf59.22.100\n",
      "  Stream #0:0: Video: h264 (avc1 / 0x31637661), yuv420p(progressive), 3840x2160, q=2-31, 50 fps, 12800 tbn\n",
      "    Metadata:\n",
      "      encoder         : Lavc59.26.100 libx264\n",
      "    Side data:\n",
      "      cpb: bitrate max/min/avg: 0/0/0 buffer size: 0 vbv_delay: N/A\n",
      "frame= 1500 fps= 13 q=-1.0 Lsize=  214307kB time=00:00:29.94 bitrate=58637.2kbits/s speed=0.268x     \n",
      "video:214286kB audio:0kB subtitle:0kB other streams:0kB global headers:0kB muxing overhead: 0.009882%\n",
      "[libx264 @ 0x563be24b2180] frame I:6     Avg QP:15.14  size:2231079\n",
      "[libx264 @ 0x563be24b2180] frame P:398   Avg QP:17.72  size:413803\n",
      "[libx264 @ 0x563be24b2180] frame B:1096  Avg QP:24.82  size: 37726\n",
      "[libx264 @ 0x563be24b2180] consecutive B-frames:  1.9%  0.9%  3.0% 94.1%\n",
      "[libx264 @ 0x563be24b2180] mb I  I16..4:  0.5% 72.8% 26.8%\n",
      "[libx264 @ 0x563be24b2180] mb P  I16..4:  0.0%  0.4%  0.3%  P16..4: 29.1% 17.9% 20.3%  0.0%  0.0%    skip:32.1%\n",
      "[libx264 @ 0x563be24b2180] mb B  I16..4:  0.0%  0.0%  0.0%  B16..8: 25.9%  2.6%  1.3%  direct: 2.5%  skip:67.7%  L0:27.2% L1:53.4% BI:19.4%\n",
      "[libx264 @ 0x563be24b2180] 8x8 transform intra:69.2% inter:51.4%\n",
      "[libx264 @ 0x563be24b2180] coded y,uvDC,uvAC intra: 99.7% 97.0% 93.0% inter: 14.4% 11.0% 7.4%\n",
      "[libx264 @ 0x563be24b2180] i16 v,h,dc,p: 65%  6%  6% 24%\n",
      "[libx264 @ 0x563be24b2180] i8 v,h,dc,ddl,ddr,vr,hd,vl,hu: 17% 19% 10%  6% 10%  9% 11%  8% 11%\n",
      "[libx264 @ 0x563be24b2180] i4 v,h,dc,ddl,ddr,vr,hd,vl,hu: 13% 13%  8%  7% 14% 11% 15%  8% 10%\n",
      "[libx264 @ 0x563be24b2180] i8c dc,h,v,p: 52% 19% 18% 11%\n",
      "[libx264 @ 0x563be24b2180] Weighted P-Frames: Y:0.0% UV:0.0%\n",
      "[libx264 @ 0x563be24b2180] ref P L0: 68.7% 12.3% 12.7%  6.3%\n",
      "[libx264 @ 0x563be24b2180] ref B L0: 89.5%  8.0%  2.5%\n",
      "[libx264 @ 0x563be24b2180] ref B L1: 93.3%  6.7%\n",
      "[libx264 @ 0x563be24b2180] kb/s:58514.16\n",
      "ffmpeg version N-106635-g83e1a1de88 Copyright (c) 2000-2022 the FFmpeg developers\n",
      "  built with gcc 9 (Ubuntu 9.4.0-1ubuntu1~20.04.1)\n",
      "  configuration: --prefix=/home/ubuntu/ffmpeg_build --pkg-config-flags=--static --extra-cflags=-I/home/ubuntu/ffmpeg_build/include --extra-ldflags=-L/home/ubuntu/ffmpeg_build/lib --extra-libs='-lpthread -lm' --ld=g++ --bindir=/home/ubuntu/bin --enable-gpl --enable-gnutls --enable-libaom --enable-libass --enable-libfdk-aac --enable-libfreetype --enable-libmp3lame --enable-libopus --enable-libsvtav1 --enable-libdav1d --enable-libvorbis --enable-libvpx --enable-libx264 --enable-libx265 --enable-libvmaf --enable-version3 --enable-nonfree\n",
      "  libavutil      57. 24.101 / 57. 24.101\n",
      "  libavcodec     59. 26.100 / 59. 26.100\n",
      "  libavformat    59. 22.100 / 59. 22.100\n",
      "  libavdevice    59.  6.100 / 59.  6.100\n",
      "  libavfilter     8. 33.100 /  8. 33.100\n",
      "  libswscale      6.  6.100 /  6.  6.100\n",
      "  libswresample   4.  6.100 /  4.  6.100\n",
      "  libpostproc    56.  5.100 / 56.  5.100\n",
      "[rawvideo @ 0x5614cc6644c0] Estimating duration from bitrate, this may be inaccurate\n",
      "Input #0, rawvideo, from 'test_vids/refs/smithy.yuv':\n",
      "  Duration: 00:00:30.00, start: 0.000000, bitrate: 4976640 kb/s\n",
      "  Stream #0:0: Video: rawvideo (I420 / 0x30323449), yuv420p, 3840x2160, 4976640 kb/s, 50 tbr, 50 tbn\n",
      "Stream mapping:\n",
      "  Stream #0:0 -> #0:0 (rawvideo (native) -> h264 (libx264))\n",
      "Press [q] to stop, [?] for help\n",
      "[libx264 @ 0x5614cc671180] using cpu capabilities: MMX2 SSE2Fast SSSE3 SSE4.2 AVX FMA3 BMI2 AVX2\n",
      "[libx264 @ 0x5614cc671180] profile High, level 5.2\n",
      "[libx264 @ 0x5614cc671180] 264 - core 155 r2917 0a84d98 - H.264/MPEG-4 AVC codec - Copyleft 2003-2018 - http://www.videolan.org/x264.html - options: cabac=1 ref=3 deblock=1:0:0 analyse=0x3:0x113 me=hex subme=7 psy=1 psy_rd=1.00:0.00 mixed_ref=1 me_range=16 chroma_me=1 trellis=1 8x8dct=1 cqm=0 deadzone=21,11 fast_pskip=1 chroma_qp_offset=-2 threads=12 lookahead_threads=2 sliced_threads=0 nr=0 decimate=1 interlaced=0 bluray_compat=0 constrained_intra=0 bframes=3 b_pyramid=2 b_adapt=1 b_bias=0 direct=1 weightb=1 open_gop=0 weightp=2 keyint=250 keyint_min=25 scenecut=40 intra_refresh=0 rc_lookahead=40 rc=crf mbtree=1 crf=23.0 qcomp=0.60 qpmin=0 qpmax=69 qpstep=4 ip_ratio=1.40 aq=1:1.00\n",
      "Output #0, mp4, to 'test_vids/encoded/smithyAVC_cf23.mp4':\n",
      "  Metadata:\n",
      "    encoder         : Lavf59.22.100\n",
      "  Stream #0:0: Video: h264 (avc1 / 0x31637661), yuv420p(progressive), 3840x2160, q=2-31, 50 fps, 12800 tbn\n",
      "    Metadata:\n",
      "      encoder         : Lavc59.26.100 libx264\n",
      "    Side data:\n",
      "      cpb: bitrate max/min/avg: 0/0/0 buffer size: 0 vbv_delay: N/A\n"
     ]
    },
    {
     "name": "stderr",
     "output_type": "stream",
     "text": [
      "frame= 1500 fps= 18 q=-1.0 Lsize=   91593kB time=00:00:29.94 bitrate=25061.1kbits/s speed=0.354x    \n",
      "video:91574kB audio:0kB subtitle:0kB other streams:0kB global headers:0kB muxing overhead: 0.021337%\n",
      "[libx264 @ 0x5614cc671180] frame I:6     Avg QP:21.14  size:1272691\n",
      "[libx264 @ 0x5614cc671180] frame P:398   Avg QP:24.02  size:176356\n",
      "[libx264 @ 0x5614cc671180] frame B:1096  Avg QP:32.36  size: 14548\n",
      "[libx264 @ 0x5614cc671180] consecutive B-frames:  1.9%  0.9%  3.0% 94.1%\n",
      "[libx264 @ 0x5614cc671180] mb I  I16..4:  0.9% 77.0% 22.1%\n",
      "[libx264 @ 0x5614cc671180] mb P  I16..4:  0.0%  0.3%  0.1%  P16..4: 17.3% 13.8% 12.1%  0.0%  0.0%    skip:56.4%\n",
      "[libx264 @ 0x5614cc671180] mb B  I16..4:  0.0%  0.0%  0.0%  B16..8: 19.1%  1.3%  0.5%  direct: 0.9%  skip:78.2%  L0:26.6% L1:63.4% BI: 9.9%\n",
      "[libx264 @ 0x5614cc671180] 8x8 transform intra:76.0% inter:52.9%\n",
      "[libx264 @ 0x5614cc671180] coded y,uvDC,uvAC intra: 98.1% 87.6% 68.1% inter: 7.4% 5.2% 3.1%\n",
      "[libx264 @ 0x5614cc671180] i16 v,h,dc,p: 70% 12%  1% 17%\n",
      "[libx264 @ 0x5614cc671180] i8 v,h,dc,ddl,ddr,vr,hd,vl,hu: 17% 19% 10%  6% 10%  9% 11%  7% 10%\n",
      "[libx264 @ 0x5614cc671180] i4 v,h,dc,ddl,ddr,vr,hd,vl,hu: 14% 14%  8%  7% 14% 11% 15%  8%  9%\n",
      "[libx264 @ 0x5614cc671180] i8c dc,h,v,p: 51% 21% 19%  8%\n",
      "[libx264 @ 0x5614cc671180] Weighted P-Frames: Y:0.0% UV:0.0%\n",
      "[libx264 @ 0x5614cc671180] ref P L0: 68.9% 17.2% 10.0%  3.9%\n",
      "[libx264 @ 0x5614cc671180] ref B L0: 91.6%  6.2%  2.2%\n",
      "[libx264 @ 0x5614cc671180] ref B L1: 95.1%  4.9%\n",
      "[libx264 @ 0x5614cc671180] kb/s:25005.53\n",
      "ffmpeg version N-106635-g83e1a1de88 Copyright (c) 2000-2022 the FFmpeg developers\n",
      "  built with gcc 9 (Ubuntu 9.4.0-1ubuntu1~20.04.1)\n",
      "  configuration: --prefix=/home/ubuntu/ffmpeg_build --pkg-config-flags=--static --extra-cflags=-I/home/ubuntu/ffmpeg_build/include --extra-ldflags=-L/home/ubuntu/ffmpeg_build/lib --extra-libs='-lpthread -lm' --ld=g++ --bindir=/home/ubuntu/bin --enable-gpl --enable-gnutls --enable-libaom --enable-libass --enable-libfdk-aac --enable-libfreetype --enable-libmp3lame --enable-libopus --enable-libsvtav1 --enable-libdav1d --enable-libvorbis --enable-libvpx --enable-libx264 --enable-libx265 --enable-libvmaf --enable-version3 --enable-nonfree\n",
      "  libavutil      57. 24.101 / 57. 24.101\n",
      "  libavcodec     59. 26.100 / 59. 26.100\n",
      "  libavformat    59. 22.100 / 59. 22.100\n",
      "  libavdevice    59.  6.100 / 59.  6.100\n",
      "  libavfilter     8. 33.100 /  8. 33.100\n",
      "  libswscale      6.  6.100 /  6.  6.100\n",
      "  libswresample   4.  6.100 /  4.  6.100\n",
      "  libpostproc    56.  5.100 / 56.  5.100\n",
      "[rawvideo @ 0x55a8bce7f4c0] Estimating duration from bitrate, this may be inaccurate\n",
      "Input #0, rawvideo, from 'test_vids/refs/smithy.yuv':\n",
      "  Duration: 00:00:30.00, start: 0.000000, bitrate: 4976640 kb/s\n",
      "  Stream #0:0: Video: rawvideo (I420 / 0x30323449), yuv420p, 3840x2160, 4976640 kb/s, 50 tbr, 50 tbn\n",
      "Stream mapping:\n",
      "  Stream #0:0 -> #0:0 (rawvideo (native) -> h264 (libx264))\n",
      "Press [q] to stop, [?] for help\n",
      "[libx264 @ 0x55a8bce8c180] using cpu capabilities: MMX2 SSE2Fast SSSE3 SSE4.2 AVX FMA3 BMI2 AVX2\n",
      "[libx264 @ 0x55a8bce8c180] profile High, level 5.2\n",
      "[libx264 @ 0x55a8bce8c180] 264 - core 155 r2917 0a84d98 - H.264/MPEG-4 AVC codec - Copyleft 2003-2018 - http://www.videolan.org/x264.html - options: cabac=1 ref=3 deblock=1:0:0 analyse=0x3:0x113 me=hex subme=7 psy=1 psy_rd=1.00:0.00 mixed_ref=1 me_range=16 chroma_me=1 trellis=1 8x8dct=1 cqm=0 deadzone=21,11 fast_pskip=1 chroma_qp_offset=-2 threads=12 lookahead_threads=2 sliced_threads=0 nr=0 decimate=1 interlaced=0 bluray_compat=0 constrained_intra=0 bframes=3 b_pyramid=2 b_adapt=1 b_bias=0 direct=1 weightb=1 open_gop=0 weightp=2 keyint=250 keyint_min=25 scenecut=40 intra_refresh=0 rc_lookahead=40 rc=crf mbtree=1 crf=29.0 qcomp=0.60 qpmin=0 qpmax=69 qpstep=4 ip_ratio=1.40 aq=1:1.00\n",
      "Output #0, mp4, to 'test_vids/encoded/smithyAVC_cf29.mp4':\n",
      "  Metadata:\n",
      "    encoder         : Lavf59.22.100\n",
      "  Stream #0:0: Video: h264 (avc1 / 0x31637661), yuv420p(progressive), 3840x2160, q=2-31, 50 fps, 12800 tbn\n",
      "    Metadata:\n",
      "      encoder         : Lavc59.26.100 libx264\n",
      "    Side data:\n",
      "      cpb: bitrate max/min/avg: 0/0/0 buffer size: 0 vbv_delay: N/A\n",
      "frame= 1500 fps= 22 q=-1.0 Lsize=   39115kB time=00:00:29.94 bitrate=10702.4kbits/s speed=0.433x     \n",
      "video:39096kB audio:0kB subtitle:0kB other streams:0kB global headers:0kB muxing overhead: 0.048258%\n",
      "[libx264 @ 0x55a8bce8c180] frame I:6     Avg QP:27.14  size:691631\n",
      "[libx264 @ 0x55a8bce8c180] frame P:398   Avg QP:31.64  size: 71892\n",
      "[libx264 @ 0x55a8bce8c180] frame B:1096  Avg QP:38.61  size:  6634\n",
      "[libx264 @ 0x55a8bce8c180] consecutive B-frames:  1.9%  0.9%  3.0% 94.1%\n",
      "[libx264 @ 0x55a8bce8c180] mb I  I16..4:  3.5% 76.3% 20.2%\n",
      "[libx264 @ 0x55a8bce8c180] mb P  I16..4:  0.0%  0.2%  0.0%  P16..4: 14.8%  9.5%  5.9%  0.0%  0.0%    skip:69.7%\n",
      "[libx264 @ 0x55a8bce8c180] mb B  I16..4:  0.0%  0.0%  0.0%  B16..8: 14.2%  0.4%  0.1%  direct: 0.2%  skip:85.0%  L0:24.4% L1:73.6% BI: 1.9%\n",
      "[libx264 @ 0x55a8bce8c180] 8x8 transform intra:77.0% inter:59.9%\n",
      "[libx264 @ 0x55a8bce8c180] coded y,uvDC,uvAC intra: 90.8% 62.1% 35.7% inter: 3.9% 2.3% 1.0%\n",
      "[libx264 @ 0x55a8bce8c180] i16 v,h,dc,p: 55% 24%  2% 18%\n",
      "[libx264 @ 0x55a8bce8c180] i8 v,h,dc,ddl,ddr,vr,hd,vl,hu: 17% 19% 12%  6% 10%  9% 11%  7% 10%\n",
      "[libx264 @ 0x55a8bce8c180] i4 v,h,dc,ddl,ddr,vr,hd,vl,hu: 18% 18%  9%  7% 12%  9% 14%  6%  7%\n",
      "[libx264 @ 0x55a8bce8c180] i8c dc,h,v,p: 58% 20% 17%  5%\n",
      "[libx264 @ 0x55a8bce8c180] Weighted P-Frames: Y:0.0% UV:0.0%\n",
      "[libx264 @ 0x55a8bce8c180] ref P L0: 70.1% 15.8% 10.8%  3.3%\n",
      "[libx264 @ 0x55a8bce8c180] ref B L0: 94.0%  4.7%  1.3%\n",
      "[libx264 @ 0x55a8bce8c180] ref B L1: 94.9%  5.1%\n",
      "[libx264 @ 0x55a8bce8c180] kb/s:10675.71\n",
      "ffmpeg version N-106635-g83e1a1de88 Copyright (c) 2000-2022 the FFmpeg developers\n",
      "  built with gcc 9 (Ubuntu 9.4.0-1ubuntu1~20.04.1)\n",
      "  configuration: --prefix=/home/ubuntu/ffmpeg_build --pkg-config-flags=--static --extra-cflags=-I/home/ubuntu/ffmpeg_build/include --extra-ldflags=-L/home/ubuntu/ffmpeg_build/lib --extra-libs='-lpthread -lm' --ld=g++ --bindir=/home/ubuntu/bin --enable-gpl --enable-gnutls --enable-libaom --enable-libass --enable-libfdk-aac --enable-libfreetype --enable-libmp3lame --enable-libopus --enable-libsvtav1 --enable-libdav1d --enable-libvorbis --enable-libvpx --enable-libx264 --enable-libx265 --enable-libvmaf --enable-version3 --enable-nonfree\n",
      "  libavutil      57. 24.101 / 57. 24.101\n",
      "  libavcodec     59. 26.100 / 59. 26.100\n",
      "  libavformat    59. 22.100 / 59. 22.100\n",
      "  libavdevice    59.  6.100 / 59.  6.100\n",
      "  libavfilter     8. 33.100 /  8. 33.100\n",
      "  libswscale      6.  6.100 /  6.  6.100\n",
      "  libswresample   4.  6.100 /  4.  6.100\n",
      "  libpostproc    56.  5.100 / 56.  5.100\n",
      "[rawvideo @ 0x556e276dc4c0] Estimating duration from bitrate, this may be inaccurate\n",
      "Input #0, rawvideo, from 'test_vids/refs/smithy.yuv':\n",
      "  Duration: 00:00:30.00, start: 0.000000, bitrate: 4976640 kb/s\n",
      "  Stream #0:0: Video: rawvideo (I420 / 0x30323449), yuv420p, 3840x2160, 4976640 kb/s, 50 tbr, 50 tbn\n",
      "Stream mapping:\n",
      "  Stream #0:0 -> #0:0 (rawvideo (native) -> h264 (libx264))\n",
      "Press [q] to stop, [?] for help\n",
      "[libx264 @ 0x556e276e9180] using cpu capabilities: MMX2 SSE2Fast SSSE3 SSE4.2 AVX FMA3 BMI2 AVX2\n",
      "[libx264 @ 0x556e276e9180] profile High, level 5.2\n",
      "[libx264 @ 0x556e276e9180] 264 - core 155 r2917 0a84d98 - H.264/MPEG-4 AVC codec - Copyleft 2003-2018 - http://www.videolan.org/x264.html - options: cabac=1 ref=3 deblock=1:0:0 analyse=0x3:0x113 me=hex subme=7 psy=1 psy_rd=1.00:0.00 mixed_ref=1 me_range=16 chroma_me=1 trellis=1 8x8dct=1 cqm=0 deadzone=21,11 fast_pskip=1 chroma_qp_offset=-2 threads=12 lookahead_threads=2 sliced_threads=0 nr=0 decimate=1 interlaced=0 bluray_compat=0 constrained_intra=0 bframes=3 b_pyramid=2 b_adapt=1 b_bias=0 direct=1 weightb=1 open_gop=0 weightp=2 keyint=250 keyint_min=25 scenecut=40 intra_refresh=0 rc_lookahead=40 rc=crf mbtree=1 crf=35.0 qcomp=0.60 qpmin=0 qpmax=69 qpstep=4 ip_ratio=1.40 aq=1:1.00\n",
      "Output #0, mp4, to 'test_vids/encoded/smithyAVC_cf35.mp4':\n",
      "  Metadata:\n",
      "    encoder         : Lavf59.22.100\n",
      "  Stream #0:0: Video: h264 (avc1 / 0x31637661), yuv420p(progressive), 3840x2160, q=2-31, 50 fps, 12800 tbn\n",
      "    Metadata:\n",
      "      encoder         : Lavc59.26.100 libx264\n",
      "    Side data:\n",
      "      cpb: bitrate max/min/avg: 0/0/0 buffer size: 0 vbv_delay: N/A\n"
     ]
    },
    {
     "name": "stderr",
     "output_type": "stream",
     "text": [
      "frame= 1500 fps= 26 q=-1.0 Lsize=   15957kB time=00:00:29.94 bitrate=4366.0kbits/s speed=0.521x     \n",
      "video:15938kB audio:0kB subtitle:0kB other streams:0kB global headers:0kB muxing overhead: 0.116366%\n",
      "[libx264 @ 0x556e276e9180] frame I:6     Avg QP:33.13  size:352421\n",
      "[libx264 @ 0x556e276e9180] frame P:398   Avg QP:38.41  size: 26633\n",
      "[libx264 @ 0x556e276e9180] frame B:1096  Avg QP:44.97  size:  3290\n",
      "[libx264 @ 0x556e276e9180] consecutive B-frames:  1.9%  0.9%  3.0% 94.1%\n",
      "[libx264 @ 0x556e276e9180] mb I  I16..4: 10.3% 73.2% 16.5%\n",
      "[libx264 @ 0x556e276e9180] mb P  I16..4:  0.0%  0.1%  0.0%  P16..4: 14.3%  3.4%  2.4%  0.0%  0.0%    skip:79.7%\n",
      "[libx264 @ 0x556e276e9180] mb B  I16..4:  0.0%  0.0%  0.0%  B16..8: 10.6%  0.1%  0.0%  direct: 0.0%  skip:89.3%  L0:23.2% L1:76.7% BI: 0.1%\n",
      "[libx264 @ 0x556e276e9180] 8x8 transform intra:74.9% inter:77.6%\n",
      "[libx264 @ 0x556e276e9180] coded y,uvDC,uvAC intra: 73.3% 41.1% 19.0% inter: 1.6% 1.2% 0.3%\n",
      "[libx264 @ 0x556e276e9180] i16 v,h,dc,p: 48% 32%  4% 16%\n",
      "[libx264 @ 0x556e276e9180] i8 v,h,dc,ddl,ddr,vr,hd,vl,hu: 17% 19% 15%  6%  9%  8% 11%  6%  8%\n",
      "[libx264 @ 0x556e276e9180] i4 v,h,dc,ddl,ddr,vr,hd,vl,hu: 19% 20% 12%  7% 11%  8% 12%  5%  6%\n",
      "[libx264 @ 0x556e276e9180] i8c dc,h,v,p: 75% 12% 11%  2%\n",
      "[libx264 @ 0x556e276e9180] Weighted P-Frames: Y:0.0% UV:0.0%\n",
      "[libx264 @ 0x556e276e9180] ref P L0: 73.1% 12.0% 11.4%  3.5%\n",
      "[libx264 @ 0x556e276e9180] ref B L0: 96.8%  2.6%  0.7%\n",
      "[libx264 @ 0x556e276e9180] ref B L1: 95.1%  4.9%\n",
      "[libx264 @ 0x556e276e9180] kb/s:4352.05\n"
     ]
    }
   ],
   "source": [
    "import os\n",
    "import subprocess\n",
    "source = \"smithy\"\n",
    "path = \"test_vids/refs/\" + source + \".yuv\"\n",
    "res_width = 3840\n",
    "res_height = 2160\n",
    "quality = [10, 17, 23, 29, 35]\n",
    "for current_crf in range(0,5):\n",
    "    out = \"test_vids/encoded/\" + source + \"AVC_cf\" + str(quality[current_crf]) + \".mp4\"\n",
    "    to_avc = f\"ffmpeg -f rawvideo -video_size {res_width}x{res_height} \\\n",
    "    -r 50 -pixel_format yuv420p -i {path} -c:v libx264 -crf {quality[current_crf]} {out}\"\n",
    "    subprocess.call(to_avc, shell=True)"
   ]
  },
  {
   "cell_type": "markdown",
   "id": "9d5a7062",
   "metadata": {},
   "source": [
    "## From YUV multires to H265 HEVC"
   ]
  },
  {
   "cell_type": "code",
   "execution_count": 3,
   "id": "b72f54a2",
   "metadata": {},
   "outputs": [
    {
     "name": "stderr",
     "output_type": "stream",
     "text": [
      "ffmpeg version N-106635-g83e1a1de88 Copyright (c) 2000-2022 the FFmpeg developers\n",
      "  built with gcc 9 (Ubuntu 9.4.0-1ubuntu1~20.04.1)\n",
      "  configuration: --prefix=/home/ubuntu/ffmpeg_build --pkg-config-flags=--static --extra-cflags=-I/home/ubuntu/ffmpeg_build/include --extra-ldflags=-L/home/ubuntu/ffmpeg_build/lib --extra-libs='-lpthread -lm' --ld=g++ --bindir=/home/ubuntu/bin --enable-gpl --enable-gnutls --enable-libaom --enable-libass --enable-libfdk-aac --enable-libfreetype --enable-libmp3lame --enable-libopus --enable-libsvtav1 --enable-libdav1d --enable-libvorbis --enable-libvpx --enable-libx264 --enable-libx265 --enable-libvmaf --enable-version3 --enable-nonfree\n",
      "  libavutil      57. 24.101 / 57. 24.101\n",
      "  libavcodec     59. 26.100 / 59. 26.100\n",
      "  libavformat    59. 22.100 / 59. 22.100\n",
      "  libavdevice    59.  6.100 / 59.  6.100\n",
      "  libavfilter     8. 33.100 /  8. 33.100\n",
      "  libswscale      6.  6.100 /  6.  6.100\n",
      "  libswresample   4.  6.100 /  4.  6.100\n",
      "  libpostproc    56.  5.100 / 56.  5.100\n",
      "[rawvideo @ 0x55b5997fb4c0] Estimating duration from bitrate, this may be inaccurate\n",
      "Input #0, rawvideo, from 'test_vids/refs/smithy.yuv':\n",
      "  Duration: 00:00:30.00, start: 0.000000, bitrate: 4976640 kb/s\n",
      "  Stream #0:0: Video: rawvideo (I420 / 0x30323449), yuv420p, 3840x2160, 4976640 kb/s, 50 tbr, 50 tbn\n",
      "Stream mapping:\n",
      "  Stream #0:0 -> #0:0 (rawvideo (native) -> hevc (libx265))\n",
      "Press [q] to stop, [?] for help\n",
      "x265 [info]: HEVC encoder version 3.2.1+1-b5c86a64bbbe\n",
      "x265 [info]: build info [Linux][GCC 9.3.0][64 bit] 8bit+10bit+12bit\n",
      "x265 [info]: using cpu capabilities: MMX2 SSE2Fast LZCNT SSSE3 SSE4.2 AVX FMA3 BMI2 AVX2\n",
      "x265 [info]: Main profile, Level-5.1 (Main tier)\n",
      "x265 [info]: Thread pool created using 8 threads\n",
      "x265 [info]: Slices                              : 1\n",
      "x265 [info]: frame threads / pool features       : 3 / wpp(34 rows)\n",
      "x265 [info]: Coding QT: max CU size, min CU size : 64 / 8\n",
      "x265 [info]: Residual QT: max TU size, max depth : 32 / 1 inter / 1 intra\n",
      "x265 [info]: ME / range / subpel / merge         : hex / 57 / 2 / 3\n",
      "x265 [info]: Keyframe min / max / scenecut / bias: 25 / 250 / 40 / 5.00\n",
      "x265 [info]: Lookahead / bframes / badapt        : 20 / 4 / 2\n",
      "x265 [info]: b-pyramid / weightp / weightb       : 1 / 1 / 0\n",
      "x265 [info]: References / ref-limit  cu / depth  : 3 / off / on\n",
      "x265 [info]: AQ: mode / str / qg-size / cu-tree  : 2 / 1.0 / 32 / 1\n",
      "x265 [info]: Rate Control / qCompress            : CRF-15.0 / 0.60\n",
      "x265 [info]: tools: rd=3 psy-rd=2.00 early-skip rskip signhide tmvp b-intra\n",
      "x265 [info]: tools: strong-intra-smoothing lslices=8 deblock sao\n",
      "Output #0, mp4, to 'test_vids/encoded/smithyHEVC_cf15.mp4':\n",
      "  Metadata:\n",
      "    encoder         : Lavf59.22.100\n",
      "  Stream #0:0: Video: hevc (hev1 / 0x31766568), yuv420p(progressive), 3840x2160, q=2-31, 50 fps, 12800 tbn\n",
      "    Metadata:\n",
      "      encoder         : Lavc59.26.100 libx265\n",
      "    Side data:\n",
      "      cpb: bitrate max/min/avg: 0/0/0 buffer size: 0 vbv_delay: N/A\n",
      "frame= 1500 fps=5.3 q=21.8 Lsize=  304925kB time=00:00:29.94 bitrate=83431.5kbits/s speed=0.105x     \n",
      "video:304901kB audio:0kB subtitle:0kB other streams:0kB global headers:2kB muxing overhead: 0.008038%\n",
      "x265 [info]: frame I:      6, Avg QP:13.65  kb/s: 903215.07\n",
      "x265 [info]: frame P:    383, Avg QP:15.16  kb/s: 250807.36\n",
      "x265 [info]: frame B:   1111, Avg QP:23.66  kb/s: 21067.83\n",
      "x265 [info]: Weighted P-Frames: Y:0.0% UV:0.0%\n",
      "x265 [info]: consecutive B-frames: 2.8% 0.8% 5.1% 90.5% 0.8% \n",
      "\n",
      "encoded 1500 frames in 283.89s (5.28 fps), 83256.59 kb/s, Avg QP:21.45\n",
      "ffmpeg version N-106635-g83e1a1de88 Copyright (c) 2000-2022 the FFmpeg developers\n",
      "  built with gcc 9 (Ubuntu 9.4.0-1ubuntu1~20.04.1)\n",
      "  configuration: --prefix=/home/ubuntu/ffmpeg_build --pkg-config-flags=--static --extra-cflags=-I/home/ubuntu/ffmpeg_build/include --extra-ldflags=-L/home/ubuntu/ffmpeg_build/lib --extra-libs='-lpthread -lm' --ld=g++ --bindir=/home/ubuntu/bin --enable-gpl --enable-gnutls --enable-libaom --enable-libass --enable-libfdk-aac --enable-libfreetype --enable-libmp3lame --enable-libopus --enable-libsvtav1 --enable-libdav1d --enable-libvorbis --enable-libvpx --enable-libx264 --enable-libx265 --enable-libvmaf --enable-version3 --enable-nonfree\n",
      "  libavutil      57. 24.101 / 57. 24.101\n",
      "  libavcodec     59. 26.100 / 59. 26.100\n",
      "  libavformat    59. 22.100 / 59. 22.100\n",
      "  libavdevice    59.  6.100 / 59.  6.100\n",
      "  libavfilter     8. 33.100 /  8. 33.100\n",
      "  libswscale      6.  6.100 /  6.  6.100\n",
      "  libswresample   4.  6.100 /  4.  6.100\n",
      "  libpostproc    56.  5.100 / 56.  5.100\n",
      "[rawvideo @ 0x5607558394c0] Estimating duration from bitrate, this may be inaccurate\n",
      "Input #0, rawvideo, from 'test_vids/refs/smithy.yuv':\n",
      "  Duration: 00:00:30.00, start: 0.000000, bitrate: 4976640 kb/s\n",
      "  Stream #0:0: Video: rawvideo (I420 / 0x30323449), yuv420p, 3840x2160, 4976640 kb/s, 50 tbr, 50 tbn\n",
      "Stream mapping:\n",
      "  Stream #0:0 -> #0:0 (rawvideo (native) -> hevc (libx265))\n",
      "Press [q] to stop, [?] for help\n",
      "x265 [info]: HEVC encoder version 3.2.1+1-b5c86a64bbbe\n",
      "x265 [info]: build info [Linux][GCC 9.3.0][64 bit] 8bit+10bit+12bit\n",
      "x265 [info]: using cpu capabilities: MMX2 SSE2Fast LZCNT SSSE3 SSE4.2 AVX FMA3 BMI2 AVX2\n",
      "x265 [info]: Main profile, Level-5.1 (Main tier)\n",
      "x265 [info]: Thread pool created using 8 threads\n",
      "x265 [info]: Slices                              : 1\n",
      "x265 [info]: frame threads / pool features       : 3 / wpp(34 rows)\n",
      "x265 [info]: Coding QT: max CU size, min CU size : 64 / 8\n",
      "x265 [info]: Residual QT: max TU size, max depth : 32 / 1 inter / 1 intra\n",
      "x265 [info]: ME / range / subpel / merge         : hex / 57 / 2 / 3\n",
      "x265 [info]: Keyframe min / max / scenecut / bias: 25 / 250 / 40 / 5.00\n",
      "x265 [info]: Lookahead / bframes / badapt        : 20 / 4 / 2\n",
      "x265 [info]: b-pyramid / weightp / weightb       : 1 / 1 / 0\n",
      "x265 [info]: References / ref-limit  cu / depth  : 3 / off / on\n",
      "x265 [info]: AQ: mode / str / qg-size / cu-tree  : 2 / 1.0 / 32 / 1\n",
      "x265 [info]: Rate Control / qCompress            : CRF-22.0 / 0.60\n",
      "x265 [info]: tools: rd=3 psy-rd=2.00 early-skip rskip signhide tmvp b-intra\n",
      "x265 [info]: tools: strong-intra-smoothing lslices=8 deblock sao\n",
      "Output #0, mp4, to 'test_vids/encoded/smithyHEVC_cf22.mp4':\n",
      "  Metadata:\n",
      "    encoder         : Lavf59.22.100\n",
      "  Stream #0:0: Video: hevc (hev1 / 0x31766568), yuv420p(progressive), 3840x2160, q=2-31, 50 fps, 12800 tbn\n",
      "    Metadata:\n",
      "      encoder         : Lavc59.26.100 libx265\n",
      "    Side data:\n",
      "      cpb: bitrate max/min/avg: 0/0/0 buffer size: 0 vbv_delay: N/A\n",
      "frame= 1500 fps=7.3 q=29.2 Lsize=  120383kB time=00:00:29.94 bitrate=32938.4kbits/s speed=0.145x     \n",
      "video:120360kB audio:0kB subtitle:0kB other streams:0kB global headers:2kB muxing overhead: 0.019363%\n",
      "x265 [info]: frame I:      6, Avg QP:20.65  kb/s: 479066.20\n",
      "x265 [info]: frame P:    383, Avg QP:22.37  kb/s: 104745.24\n",
      "x265 [info]: frame B:   1111, Avg QP:30.96  kb/s: 5675.17 \n",
      "x265 [info]: Weighted P-Frames: Y:0.0% UV:0.0%\n",
      "x265 [info]: consecutive B-frames: 2.8% 0.8% 5.1% 90.5% 0.8% \n",
      "\n",
      "encoded 1500 frames in 205.98s (7.28 fps), 32864.63 kb/s, Avg QP:28.72\n",
      "ffmpeg version N-106635-g83e1a1de88 Copyright (c) 2000-2022 the FFmpeg developers\n",
      "  built with gcc 9 (Ubuntu 9.4.0-1ubuntu1~20.04.1)\n",
      "  configuration: --prefix=/home/ubuntu/ffmpeg_build --pkg-config-flags=--static --extra-cflags=-I/home/ubuntu/ffmpeg_build/include --extra-ldflags=-L/home/ubuntu/ffmpeg_build/lib --extra-libs='-lpthread -lm' --ld=g++ --bindir=/home/ubuntu/bin --enable-gpl --enable-gnutls --enable-libaom --enable-libass --enable-libfdk-aac --enable-libfreetype --enable-libmp3lame --enable-libopus --enable-libsvtav1 --enable-libdav1d --enable-libvorbis --enable-libvpx --enable-libx264 --enable-libx265 --enable-libvmaf --enable-version3 --enable-nonfree\n",
      "  libavutil      57. 24.101 / 57. 24.101\n",
      "  libavcodec     59. 26.100 / 59. 26.100\n",
      "  libavformat    59. 22.100 / 59. 22.100\n",
      "  libavdevice    59.  6.100 / 59.  6.100\n",
      "  libavfilter     8. 33.100 /  8. 33.100\n",
      "  libswscale      6.  6.100 /  6.  6.100\n",
      "  libswresample   4.  6.100 /  4.  6.100\n",
      "  libpostproc    56.  5.100 / 56.  5.100\n",
      "[rawvideo @ 0x555cec6174c0] Estimating duration from bitrate, this may be inaccurate\n",
      "Input #0, rawvideo, from 'test_vids/refs/smithy.yuv':\n",
      "  Duration: 00:00:30.00, start: 0.000000, bitrate: 4976640 kb/s\n",
      "  Stream #0:0: Video: rawvideo (I420 / 0x30323449), yuv420p, 3840x2160, 4976640 kb/s, 50 tbr, 50 tbn\n",
      "Stream mapping:\n",
      "  Stream #0:0 -> #0:0 (rawvideo (native) -> hevc (libx265))\n",
      "Press [q] to stop, [?] for help\n",
      "x265 [info]: HEVC encoder version 3.2.1+1-b5c86a64bbbe\n",
      "x265 [info]: build info [Linux][GCC 9.3.0][64 bit] 8bit+10bit+12bit\n",
      "x265 [info]: using cpu capabilities: MMX2 SSE2Fast LZCNT SSSE3 SSE4.2 AVX FMA3 BMI2 AVX2\n",
      "x265 [info]: Main profile, Level-5.1 (Main tier)\n",
      "x265 [info]: Thread pool created using 8 threads\n",
      "x265 [info]: Slices                              : 1\n",
      "x265 [info]: frame threads / pool features       : 3 / wpp(34 rows)\n",
      "x265 [info]: Coding QT: max CU size, min CU size : 64 / 8\n",
      "x265 [info]: Residual QT: max TU size, max depth : 32 / 1 inter / 1 intra\n",
      "x265 [info]: ME / range / subpel / merge         : hex / 57 / 2 / 3\n",
      "x265 [info]: Keyframe min / max / scenecut / bias: 25 / 250 / 40 / 5.00\n",
      "x265 [info]: Lookahead / bframes / badapt        : 20 / 4 / 2\n",
      "x265 [info]: b-pyramid / weightp / weightb       : 1 / 1 / 0\n",
      "x265 [info]: References / ref-limit  cu / depth  : 3 / off / on\n",
      "x265 [info]: AQ: mode / str / qg-size / cu-tree  : 2 / 1.0 / 32 / 1\n",
      "x265 [info]: Rate Control / qCompress            : CRF-28.0 / 0.60\n",
      "x265 [info]: tools: rd=3 psy-rd=2.00 early-skip rskip signhide tmvp b-intra\n",
      "x265 [info]: tools: strong-intra-smoothing lslices=8 deblock sao\n",
      "Output #0, mp4, to 'test_vids/encoded/smithyHEVC_cf28.mp4':\n",
      "  Metadata:\n",
      "    encoder         : Lavf59.22.100\n",
      "  Stream #0:0: Video: hevc (hev1 / 0x31766568), yuv420p(progressive), 3840x2160, q=2-31, 50 fps, 12800 tbn\n",
      "    Metadata:\n",
      "      encoder         : Lavc59.26.100 libx265\n",
      "    Side data:\n",
      "      cpb: bitrate max/min/avg: 0/0/0 buffer size: 0 vbv_delay: N/A\n"
     ]
    },
    {
     "name": "stderr",
     "output_type": "stream",
     "text": [
      "frame= 1500 fps=8.8 q=35.5 Lsize=   52087kB time=00:00:29.94 bitrate=14251.6kbits/s speed=0.176x    \n",
      "video:52064kB audio:0kB subtitle:0kB other streams:0kB global headers:2kB muxing overhead: 0.043473%\n",
      "x265 [info]: frame I:      6, Avg QP:26.65  kb/s: 260536.60\n",
      "x265 [info]: frame P:    383, Avg QP:28.71  kb/s: 46654.96\n",
      "x265 [info]: frame B:   1111, Avg QP:37.21  kb/s: 1702.01 \n",
      "x265 [info]: Weighted P-Frames: Y:0.0% UV:0.0%\n",
      "x265 [info]: consecutive B-frames: 2.8% 0.8% 5.1% 90.5% 0.8% \n",
      "\n",
      "encoded 1500 frames in 170.32s (8.81 fps), 14215.34 kb/s, Avg QP:35.00\n",
      "ffmpeg version N-106635-g83e1a1de88 Copyright (c) 2000-2022 the FFmpeg developers\n",
      "  built with gcc 9 (Ubuntu 9.4.0-1ubuntu1~20.04.1)\n",
      "  configuration: --prefix=/home/ubuntu/ffmpeg_build --pkg-config-flags=--static --extra-cflags=-I/home/ubuntu/ffmpeg_build/include --extra-ldflags=-L/home/ubuntu/ffmpeg_build/lib --extra-libs='-lpthread -lm' --ld=g++ --bindir=/home/ubuntu/bin --enable-gpl --enable-gnutls --enable-libaom --enable-libass --enable-libfdk-aac --enable-libfreetype --enable-libmp3lame --enable-libopus --enable-libsvtav1 --enable-libdav1d --enable-libvorbis --enable-libvpx --enable-libx264 --enable-libx265 --enable-libvmaf --enable-version3 --enable-nonfree\n",
      "  libavutil      57. 24.101 / 57. 24.101\n",
      "  libavcodec     59. 26.100 / 59. 26.100\n",
      "  libavformat    59. 22.100 / 59. 22.100\n",
      "  libavdevice    59.  6.100 / 59.  6.100\n",
      "  libavfilter     8. 33.100 /  8. 33.100\n",
      "  libswscale      6.  6.100 /  6.  6.100\n",
      "  libswresample   4.  6.100 /  4.  6.100\n",
      "  libpostproc    56.  5.100 / 56.  5.100\n",
      "[rawvideo @ 0x5600545c84c0] Estimating duration from bitrate, this may be inaccurate\n",
      "Input #0, rawvideo, from 'test_vids/refs/smithy.yuv':\n",
      "  Duration: 00:00:30.00, start: 0.000000, bitrate: 4976640 kb/s\n",
      "  Stream #0:0: Video: rawvideo (I420 / 0x30323449), yuv420p, 3840x2160, 4976640 kb/s, 50 tbr, 50 tbn\n",
      "Stream mapping:\n",
      "  Stream #0:0 -> #0:0 (rawvideo (native) -> hevc (libx265))\n",
      "Press [q] to stop, [?] for help\n",
      "x265 [info]: HEVC encoder version 3.2.1+1-b5c86a64bbbe\n",
      "x265 [info]: build info [Linux][GCC 9.3.0][64 bit] 8bit+10bit+12bit\n",
      "x265 [info]: using cpu capabilities: MMX2 SSE2Fast LZCNT SSSE3 SSE4.2 AVX FMA3 BMI2 AVX2\n",
      "x265 [info]: Main profile, Level-5.1 (Main tier)\n",
      "x265 [info]: Thread pool created using 8 threads\n",
      "x265 [info]: Slices                              : 1\n",
      "x265 [info]: frame threads / pool features       : 3 / wpp(34 rows)\n",
      "x265 [info]: Coding QT: max CU size, min CU size : 64 / 8\n",
      "x265 [info]: Residual QT: max TU size, max depth : 32 / 1 inter / 1 intra\n",
      "x265 [info]: ME / range / subpel / merge         : hex / 57 / 2 / 3\n",
      "x265 [info]: Keyframe min / max / scenecut / bias: 25 / 250 / 40 / 5.00\n",
      "x265 [info]: Lookahead / bframes / badapt        : 20 / 4 / 2\n",
      "x265 [info]: b-pyramid / weightp / weightb       : 1 / 1 / 0\n",
      "x265 [info]: References / ref-limit  cu / depth  : 3 / off / on\n",
      "x265 [info]: AQ: mode / str / qg-size / cu-tree  : 2 / 1.0 / 32 / 1\n",
      "x265 [info]: Rate Control / qCompress            : CRF-34.0 / 0.60\n",
      "x265 [info]: tools: rd=3 psy-rd=2.00 early-skip rskip signhide tmvp b-intra\n",
      "x265 [info]: tools: strong-intra-smoothing lslices=8 deblock sao\n",
      "Output #0, mp4, to 'test_vids/encoded/smithyHEVC_cf34.mp4':\n",
      "  Metadata:\n",
      "    encoder         : Lavf59.22.100\n",
      "  Stream #0:0: Video: hevc (hev1 / 0x31766568), yuv420p(progressive), 3840x2160, q=2-31, 50 fps, 12800 tbn\n",
      "    Metadata:\n",
      "      encoder         : Lavc59.26.100 libx265\n",
      "    Side data:\n",
      "      cpb: bitrate max/min/avg: 0/0/0 buffer size: 0 vbv_delay: N/A\n",
      "frame= 1500 fps=9.6 q=41.8 Lsize=   20499kB time=00:00:29.94 bitrate=5608.8kbits/s speed=0.191x     \n",
      "video:20477kB audio:0kB subtitle:0kB other streams:0kB global headers:2kB muxing overhead: 0.108913%\n",
      "x265 [info]: frame I:      6, Avg QP:32.65  kb/s: 134288.27\n",
      "x265 [info]: frame P:    383, Avg QP:35.28  kb/s: 18417.97\n",
      "x265 [info]: frame B:   1111, Avg QP:43.44  kb/s: 472.57  \n",
      "x265 [info]: Weighted P-Frames: Y:0.0% UV:0.0%\n",
      "x265 [info]: consecutive B-frames: 2.8% 0.8% 5.1% 90.5% 0.8% \n",
      "\n",
      "encoded 1500 frames in 157.03s (9.55 fps), 5589.89 kb/s, Avg QP:41.32\n",
      "ffmpeg version N-106635-g83e1a1de88 Copyright (c) 2000-2022 the FFmpeg developers\n",
      "  built with gcc 9 (Ubuntu 9.4.0-1ubuntu1~20.04.1)\n",
      "  configuration: --prefix=/home/ubuntu/ffmpeg_build --pkg-config-flags=--static --extra-cflags=-I/home/ubuntu/ffmpeg_build/include --extra-ldflags=-L/home/ubuntu/ffmpeg_build/lib --extra-libs='-lpthread -lm' --ld=g++ --bindir=/home/ubuntu/bin --enable-gpl --enable-gnutls --enable-libaom --enable-libass --enable-libfdk-aac --enable-libfreetype --enable-libmp3lame --enable-libopus --enable-libsvtav1 --enable-libdav1d --enable-libvorbis --enable-libvpx --enable-libx264 --enable-libx265 --enable-libvmaf --enable-version3 --enable-nonfree\n",
      "  libavutil      57. 24.101 / 57. 24.101\n",
      "  libavcodec     59. 26.100 / 59. 26.100\n",
      "  libavformat    59. 22.100 / 59. 22.100\n",
      "  libavdevice    59.  6.100 / 59.  6.100\n",
      "  libavfilter     8. 33.100 /  8. 33.100\n",
      "  libswscale      6.  6.100 /  6.  6.100\n",
      "  libswresample   4.  6.100 /  4.  6.100\n",
      "  libpostproc    56.  5.100 / 56.  5.100\n",
      "[rawvideo @ 0x555e5e1ad4c0] Estimating duration from bitrate, this may be inaccurate\n",
      "Input #0, rawvideo, from 'test_vids/refs/smithy.yuv':\n",
      "  Duration: 00:00:30.00, start: 0.000000, bitrate: 4976640 kb/s\n",
      "  Stream #0:0: Video: rawvideo (I420 / 0x30323449), yuv420p, 3840x2160, 4976640 kb/s, 50 tbr, 50 tbn\n",
      "Stream mapping:\n",
      "  Stream #0:0 -> #0:0 (rawvideo (native) -> hevc (libx265))\n",
      "Press [q] to stop, [?] for help\n",
      "x265 [info]: HEVC encoder version 3.2.1+1-b5c86a64bbbe\n",
      "x265 [info]: build info [Linux][GCC 9.3.0][64 bit] 8bit+10bit+12bit\n",
      "x265 [info]: using cpu capabilities: MMX2 SSE2Fast LZCNT SSSE3 SSE4.2 AVX FMA3 BMI2 AVX2\n",
      "x265 [info]: Main profile, Level-5.1 (Main tier)\n",
      "x265 [info]: Thread pool created using 8 threads\n",
      "x265 [info]: Slices                              : 1\n",
      "x265 [info]: frame threads / pool features       : 3 / wpp(34 rows)\n",
      "x265 [info]: Coding QT: max CU size, min CU size : 64 / 8\n",
      "x265 [info]: Residual QT: max TU size, max depth : 32 / 1 inter / 1 intra\n",
      "x265 [info]: ME / range / subpel / merge         : hex / 57 / 2 / 3\n",
      "x265 [info]: Keyframe min / max / scenecut / bias: 25 / 250 / 40 / 5.00\n",
      "x265 [info]: Lookahead / bframes / badapt        : 20 / 4 / 2\n",
      "x265 [info]: b-pyramid / weightp / weightb       : 1 / 1 / 0\n",
      "x265 [info]: References / ref-limit  cu / depth  : 3 / off / on\n",
      "x265 [info]: AQ: mode / str / qg-size / cu-tree  : 2 / 1.0 / 32 / 1\n",
      "x265 [info]: Rate Control / qCompress            : CRF-40.0 / 0.60\n",
      "x265 [info]: tools: rd=3 psy-rd=2.00 early-skip rskip signhide tmvp b-intra\n",
      "x265 [info]: tools: strong-intra-smoothing lslices=8 deblock sao\n",
      "Output #0, mp4, to 'test_vids/encoded/smithyHEVC_cf40.mp4':\n",
      "  Metadata:\n",
      "    encoder         : Lavf59.22.100\n",
      "  Stream #0:0: Video: hevc (hev1 / 0x31766568), yuv420p(progressive), 3840x2160, q=2-31, 50 fps, 12800 tbn\n",
      "    Metadata:\n",
      "      encoder         : Lavc59.26.100 libx265\n",
      "    Side data:\n",
      "      cpb: bitrate max/min/avg: 0/0/0 buffer size: 0 vbv_delay: N/A\n",
      "frame= 1500 fps= 10 q=48.0 Lsize=    6535kB time=00:00:29.94 bitrate=1788.2kbits/s speed=0.204x    \n",
      "video:6513kB audio:0kB subtitle:0kB other streams:0kB global headers:2kB muxing overhead: 0.339223%\n",
      "x265 [info]: frame I:      6, Avg QP:38.66  kb/s: 62462.87\n",
      "x265 [info]: frame P:    383, Avg QP:42.19  kb/s: 5453.40 \n",
      "x265 [info]: frame B:   1111, Avg QP:49.63  kb/s: 181.85  \n",
      "x265 [info]: Weighted P-Frames: Y:0.0% UV:0.0%\n",
      "x265 [info]: consecutive B-frames: 2.8% 0.8% 5.1% 90.5% 0.8% \n",
      "\n",
      "encoded 1500 frames in 146.61s (10.23 fps), 1776.98 kb/s, Avg QP:47.68\n"
     ]
    }
   ],
   "source": [
    "import os\n",
    "import subprocess\n",
    "source = \"smithy\"\n",
    "path = \"test_vids/refs/\" + source + \".yuv\"\n",
    "res_width = 3840\n",
    "res_height = 2160\n",
    "quality = [15, 22, 28, 34, 40]\n",
    "for current_crf in range(0,5):\n",
    "    out = \"test_vids/encoded/\" + source + \"HEVC_cf\" + str(quality[current_crf]) + \".mp4\"\n",
    "    to_avc = f\"ffmpeg -f rawvideo -video_size {res_width}x{res_height} \\\n",
    "    -r 50 -pixel_format yuv420p -i {path} -c:v libx265 -crf {quality[current_crf]} {out}\"\n",
    "    subprocess.call(to_avc, shell=True)"
   ]
  },
  {
   "cell_type": "markdown",
   "id": "5a48bd95",
   "metadata": {},
   "source": [
    "## From YUV multires to VP9 WEBM"
   ]
  },
  {
   "cell_type": "code",
   "execution_count": 4,
   "id": "fc5e42a8",
   "metadata": {},
   "outputs": [
    {
     "name": "stderr",
     "output_type": "stream",
     "text": [
      "ffmpeg version N-106635-g83e1a1de88 Copyright (c) 2000-2022 the FFmpeg developers\n",
      "  built with gcc 9 (Ubuntu 9.4.0-1ubuntu1~20.04.1)\n",
      "  configuration: --prefix=/home/ubuntu/ffmpeg_build --pkg-config-flags=--static --extra-cflags=-I/home/ubuntu/ffmpeg_build/include --extra-ldflags=-L/home/ubuntu/ffmpeg_build/lib --extra-libs='-lpthread -lm' --ld=g++ --bindir=/home/ubuntu/bin --enable-gpl --enable-gnutls --enable-libaom --enable-libass --enable-libfdk-aac --enable-libfreetype --enable-libmp3lame --enable-libopus --enable-libsvtav1 --enable-libdav1d --enable-libvorbis --enable-libvpx --enable-libx264 --enable-libx265 --enable-libvmaf --enable-version3 --enable-nonfree\n",
      "  libavutil      57. 24.101 / 57. 24.101\n",
      "  libavcodec     59. 26.100 / 59. 26.100\n",
      "  libavformat    59. 22.100 / 59. 22.100\n",
      "  libavdevice    59.  6.100 / 59.  6.100\n",
      "  libavfilter     8. 33.100 /  8. 33.100\n",
      "  libswscale      6.  6.100 /  6.  6.100\n",
      "  libswresample   4.  6.100 /  4.  6.100\n",
      "  libpostproc    56.  5.100 / 56.  5.100\n",
      "[rawvideo @ 0x557f9c14e4c0] Estimating duration from bitrate, this may be inaccurate\n",
      "Input #0, rawvideo, from 'test_vids/refs/smithy.yuv':\n",
      "  Duration: 00:00:30.00, start: 0.000000, bitrate: 4976640 kb/s\n",
      "  Stream #0:0: Video: rawvideo (I420 / 0x30323449), yuv420p, 3840x2160, 4976640 kb/s, 50 tbr, 50 tbn\n",
      "Stream mapping:\n",
      "  Stream #0:0 -> #0:0 (rawvideo (native) -> vp9 (libvpx-vp9))\n",
      "Press [q] to stop, [?] for help\n",
      "[libvpx-vp9 @ 0x557f9c15b240] v1.8.2\n",
      "Output #0, webm, to 'test_vids/encoded/smithyVP9_cf15.webm':\n",
      "  Metadata:\n",
      "    encoder         : Lavf59.22.100\n",
      "  Stream #0:0: Video: vp9, yuv420p(progressive), 3840x2160, q=2-31, 50 fps, 1k tbn\n",
      "    Metadata:\n",
      "      encoder         : Lavc59.26.100 libvpx-vp9\n",
      "    Side data:\n",
      "      cpb: bitrate max/min/avg: 0/0/0 buffer size: 0 vbv_delay: N/A\n",
      "frame= 1500 fps=1.1 q=15.0 Lsize=  401259kB time=00:00:29.98 bitrate=109639.8kbits/s speed=0.0217x    \n",
      "video:401245kB audio:0kB subtitle:0kB other streams:0kB global headers:0kB muxing overhead: 0.003338%\n",
      "ffmpeg version N-106635-g83e1a1de88 Copyright (c) 2000-2022 the FFmpeg developers\n",
      "  built with gcc 9 (Ubuntu 9.4.0-1ubuntu1~20.04.1)\n",
      "  configuration: --prefix=/home/ubuntu/ffmpeg_build --pkg-config-flags=--static --extra-cflags=-I/home/ubuntu/ffmpeg_build/include --extra-ldflags=-L/home/ubuntu/ffmpeg_build/lib --extra-libs='-lpthread -lm' --ld=g++ --bindir=/home/ubuntu/bin --enable-gpl --enable-gnutls --enable-libaom --enable-libass --enable-libfdk-aac --enable-libfreetype --enable-libmp3lame --enable-libopus --enable-libsvtav1 --enable-libdav1d --enable-libvorbis --enable-libvpx --enable-libx264 --enable-libx265 --enable-libvmaf --enable-version3 --enable-nonfree\n",
      "  libavutil      57. 24.101 / 57. 24.101\n",
      "  libavcodec     59. 26.100 / 59. 26.100\n",
      "  libavformat    59. 22.100 / 59. 22.100\n",
      "  libavdevice    59.  6.100 / 59.  6.100\n",
      "  libavfilter     8. 33.100 /  8. 33.100\n",
      "  libswscale      6.  6.100 /  6.  6.100\n",
      "  libswresample   4.  6.100 /  4.  6.100\n",
      "  libpostproc    56.  5.100 / 56.  5.100\n",
      "[rawvideo @ 0x5586c02484c0] Estimating duration from bitrate, this may be inaccurate\n",
      "Input #0, rawvideo, from 'test_vids/refs/smithy.yuv':\n",
      "  Duration: 00:00:30.00, start: 0.000000, bitrate: 4976640 kb/s\n",
      "  Stream #0:0: Video: rawvideo (I420 / 0x30323449), yuv420p, 3840x2160, 4976640 kb/s, 50 tbr, 50 tbn\n",
      "Stream mapping:\n",
      "  Stream #0:0 -> #0:0 (rawvideo (native) -> vp9 (libvpx-vp9))\n",
      "Press [q] to stop, [?] for help\n",
      "[libvpx-vp9 @ 0x5586c0255240] v1.8.2\n",
      "Output #0, webm, to 'test_vids/encoded/smithyVP9_cf20.webm':\n",
      "  Metadata:\n",
      "    encoder         : Lavf59.22.100\n",
      "  Stream #0:0: Video: vp9, yuv420p(progressive), 3840x2160, q=2-31, 50 fps, 1k tbn\n",
      "    Metadata:\n",
      "      encoder         : Lavc59.26.100 libvpx-vp9\n",
      "    Side data:\n",
      "      cpb: bitrate max/min/avg: 0/0/0 buffer size: 0 vbv_delay: N/A\n",
      "frame= 1500 fps=1.3 q=20.0 Lsize=  301432kB time=00:00:29.98 bitrate=82363.3kbits/s speed=0.0252x    \n",
      "video:301419kB audio:0kB subtitle:0kB other streams:0kB global headers:0kB muxing overhead: 0.004371%\n",
      "ffmpeg version N-106635-g83e1a1de88 Copyright (c) 2000-2022 the FFmpeg developers\n",
      "  built with gcc 9 (Ubuntu 9.4.0-1ubuntu1~20.04.1)\n",
      "  configuration: --prefix=/home/ubuntu/ffmpeg_build --pkg-config-flags=--static --extra-cflags=-I/home/ubuntu/ffmpeg_build/include --extra-ldflags=-L/home/ubuntu/ffmpeg_build/lib --extra-libs='-lpthread -lm' --ld=g++ --bindir=/home/ubuntu/bin --enable-gpl --enable-gnutls --enable-libaom --enable-libass --enable-libfdk-aac --enable-libfreetype --enable-libmp3lame --enable-libopus --enable-libsvtav1 --enable-libdav1d --enable-libvorbis --enable-libvpx --enable-libx264 --enable-libx265 --enable-libvmaf --enable-version3 --enable-nonfree\n",
      "  libavutil      57. 24.101 / 57. 24.101\n",
      "  libavcodec     59. 26.100 / 59. 26.100\n",
      "  libavformat    59. 22.100 / 59. 22.100\n",
      "  libavdevice    59.  6.100 / 59.  6.100\n",
      "  libavfilter     8. 33.100 /  8. 33.100\n",
      "  libswscale      6.  6.100 /  6.  6.100\n",
      "  libswresample   4.  6.100 /  4.  6.100\n",
      "  libpostproc    56.  5.100 / 56.  5.100\n",
      "[rawvideo @ 0x5587bdf0e4c0] Estimating duration from bitrate, this may be inaccurate\n",
      "Input #0, rawvideo, from 'test_vids/refs/smithy.yuv':\n",
      "  Duration: 00:00:30.00, start: 0.000000, bitrate: 4976640 kb/s\n",
      "  Stream #0:0: Video: rawvideo (I420 / 0x30323449), yuv420p, 3840x2160, 4976640 kb/s, 50 tbr, 50 tbn\n",
      "Stream mapping:\n",
      "  Stream #0:0 -> #0:0 (rawvideo (native) -> vp9 (libvpx-vp9))\n",
      "Press [q] to stop, [?] for help\n",
      "[libvpx-vp9 @ 0x5587bdf1b240] v1.8.2\n",
      "Output #0, webm, to 'test_vids/encoded/smithyVP9_cf25.webm':\n",
      "  Metadata:\n",
      "    encoder         : Lavf59.22.100\n",
      "  Stream #0:0: Video: vp9, yuv420p(progressive), 3840x2160, q=2-31, 50 fps, 1k tbn\n",
      "    Metadata:\n",
      "      encoder         : Lavc59.26.100 libvpx-vp9\n",
      "    Side data:\n",
      "      cpb: bitrate max/min/avg: 0/0/0 buffer size: 0 vbv_delay: N/A\n",
      "frame= 1500 fps=1.5 q=25.0 Lsize=  229275kB time=00:00:29.98 bitrate=62646.9kbits/s speed=0.0292x    \n",
      "video:229261kB audio:0kB subtitle:0kB other streams:0kB global headers:0kB muxing overhead: 0.005684%\n",
      "ffmpeg version N-106635-g83e1a1de88 Copyright (c) 2000-2022 the FFmpeg developers\n",
      "  built with gcc 9 (Ubuntu 9.4.0-1ubuntu1~20.04.1)\n",
      "  configuration: --prefix=/home/ubuntu/ffmpeg_build --pkg-config-flags=--static --extra-cflags=-I/home/ubuntu/ffmpeg_build/include --extra-ldflags=-L/home/ubuntu/ffmpeg_build/lib --extra-libs='-lpthread -lm' --ld=g++ --bindir=/home/ubuntu/bin --enable-gpl --enable-gnutls --enable-libaom --enable-libass --enable-libfdk-aac --enable-libfreetype --enable-libmp3lame --enable-libopus --enable-libsvtav1 --enable-libdav1d --enable-libvorbis --enable-libvpx --enable-libx264 --enable-libx265 --enable-libvmaf --enable-version3 --enable-nonfree\n",
      "  libavutil      57. 24.101 / 57. 24.101\n",
      "  libavcodec     59. 26.100 / 59. 26.100\n",
      "  libavformat    59. 22.100 / 59. 22.100\n",
      "  libavdevice    59.  6.100 / 59.  6.100\n",
      "  libavfilter     8. 33.100 /  8. 33.100\n",
      "  libswscale      6.  6.100 /  6.  6.100\n",
      "  libswresample   4.  6.100 /  4.  6.100\n",
      "  libpostproc    56.  5.100 / 56.  5.100\n",
      "[rawvideo @ 0x5626b5ef14c0] Estimating duration from bitrate, this may be inaccurate\n",
      "Input #0, rawvideo, from 'test_vids/refs/smithy.yuv':\n",
      "  Duration: 00:00:30.00, start: 0.000000, bitrate: 4976640 kb/s\n",
      "  Stream #0:0: Video: rawvideo (I420 / 0x30323449), yuv420p, 3840x2160, 4976640 kb/s, 50 tbr, 50 tbn\n",
      "Stream mapping:\n",
      "  Stream #0:0 -> #0:0 (rawvideo (native) -> vp9 (libvpx-vp9))\n",
      "Press [q] to stop, [?] for help\n",
      "[libvpx-vp9 @ 0x5626b5efe240] v1.8.2\n",
      "Output #0, webm, to 'test_vids/encoded/smithyVP9_cf30.webm':\n",
      "  Metadata:\n",
      "    encoder         : Lavf59.22.100\n",
      "  Stream #0:0: Video: vp9, yuv420p(progressive), 3840x2160, q=2-31, 50 fps, 1k tbn\n",
      "    Metadata:\n",
      "      encoder         : Lavc59.26.100 libvpx-vp9\n",
      "    Side data:\n",
      "      cpb: bitrate max/min/avg: 0/0/0 buffer size: 0 vbv_delay: N/A\n",
      "frame= 1500 fps=1.7 q=30.0 Lsize=  162609kB time=00:00:29.98 bitrate=44431.2kbits/s speed=0.033x    \n",
      "video:162596kB audio:0kB subtitle:0kB other streams:0kB global headers:0kB muxing overhead: 0.007914%\n",
      "ffmpeg version N-106635-g83e1a1de88 Copyright (c) 2000-2022 the FFmpeg developers\n",
      "  built with gcc 9 (Ubuntu 9.4.0-1ubuntu1~20.04.1)\n",
      "  configuration: --prefix=/home/ubuntu/ffmpeg_build --pkg-config-flags=--static --extra-cflags=-I/home/ubuntu/ffmpeg_build/include --extra-ldflags=-L/home/ubuntu/ffmpeg_build/lib --extra-libs='-lpthread -lm' --ld=g++ --bindir=/home/ubuntu/bin --enable-gpl --enable-gnutls --enable-libaom --enable-libass --enable-libfdk-aac --enable-libfreetype --enable-libmp3lame --enable-libopus --enable-libsvtav1 --enable-libdav1d --enable-libvorbis --enable-libvpx --enable-libx264 --enable-libx265 --enable-libvmaf --enable-version3 --enable-nonfree\n",
      "  libavutil      57. 24.101 / 57. 24.101\n",
      "  libavcodec     59. 26.100 / 59. 26.100\n",
      "  libavformat    59. 22.100 / 59. 22.100\n",
      "  libavdevice    59.  6.100 / 59.  6.100\n",
      "  libavfilter     8. 33.100 /  8. 33.100\n",
      "  libswscale      6.  6.100 /  6.  6.100\n",
      "  libswresample   4.  6.100 /  4.  6.100\n",
      "  libpostproc    56.  5.100 / 56.  5.100\n",
      "[rawvideo @ 0x560fda0ef4c0] Estimating duration from bitrate, this may be inaccurate\n",
      "Input #0, rawvideo, from 'test_vids/refs/smithy.yuv':\n",
      "  Duration: 00:00:30.00, start: 0.000000, bitrate: 4976640 kb/s\n",
      "  Stream #0:0: Video: rawvideo (I420 / 0x30323449), yuv420p, 3840x2160, 4976640 kb/s, 50 tbr, 50 tbn\n",
      "Stream mapping:\n",
      "  Stream #0:0 -> #0:0 (rawvideo (native) -> vp9 (libvpx-vp9))\n",
      "Press [q] to stop, [?] for help\n",
      "[libvpx-vp9 @ 0x560fda0fc240] v1.8.2\n",
      "Output #0, webm, to 'test_vids/encoded/smithyVP9_cf35.webm':\n",
      "  Metadata:\n",
      "    encoder         : Lavf59.22.100\n",
      "  Stream #0:0: Video: vp9, yuv420p(progressive), 3840x2160, q=2-31, 50 fps, 1k tbn\n",
      "    Metadata:\n",
      "      encoder         : Lavc59.26.100 libvpx-vp9\n",
      "    Side data:\n",
      "      cpb: bitrate max/min/avg: 0/0/0 buffer size: 0 vbv_delay: N/A\n"
     ]
    },
    {
     "name": "stderr",
     "output_type": "stream",
     "text": [
      "frame= 1500 fps=1.9 q=35.0 Lsize=  108292kB time=00:00:29.98 bitrate=29589.6kbits/s speed=0.0374x    \n",
      "video:108279kB audio:0kB subtitle:0kB other streams:0kB global headers:0kB muxing overhead: 0.011628%\n"
     ]
    }
   ],
   "source": [
    "import os\n",
    "import subprocess\n",
    "source = \"smithy\"\n",
    "path = \"test_vids/refs/\" + source + \".yuv\"\n",
    "res_width = 3840\n",
    "res_height = 2160\n",
    "quality = [15, 20, 25, 30, 35]\n",
    "for current_crf in range(0,5):\n",
    "    out = \"test_vids/encoded/\" + source + \"VP9_cf\" + str(quality[current_crf]) + \".webm\"\n",
    "    to_avc = f\"ffmpeg -f rawvideo -video_size {res_width}x{res_height} \\\n",
    "    -r 50 -pixel_format yuv420p -i {path} -c:v libvpx-vp9 -crf {quality[current_crf]} {out}\"\n",
    "    subprocess.call(to_avc, shell=True)"
   ]
  },
  {
   "cell_type": "code",
   "execution_count": null,
   "id": "fe3278ab",
   "metadata": {},
   "outputs": [],
   "source": []
  }
 ],
 "metadata": {
  "kernelspec": {
   "display_name": "Python 3 (ipykernel)",
   "language": "python",
   "name": "python3"
  },
  "language_info": {
   "codemirror_mode": {
    "name": "ipython",
    "version": 3
   },
   "file_extension": ".py",
   "mimetype": "text/x-python",
   "name": "python",
   "nbconvert_exporter": "python",
   "pygments_lexer": "ipython3",
   "version": "3.8.10"
  }
 },
 "nbformat": 4,
 "nbformat_minor": 5
}
